Coordinates
version=1
nRows=11
nColumns=63
inDegrees=yes

Units are S.I. units (second, meters, Newtons, ...)
If the header above contains a line with 'inDegrees', this indicates whether rotational values are in degrees (yes) or radians (no).

endheader
time	pelvis_tilt	pelvis_list	pelvis_rotation	pelvis_tx	pelvis_ty	pelvis_tz	hip_flexion_r	hip_adduction_r	hip_rotation_r	knee_angle_r	knee_angle_r_beta	ankle_angle_r	subtalar_angle_r	mtp_angle_r	hip_flexion_l	hip_adduction_l	hip_rotation_l	knee_angle_l	knee_angle_l_beta	ankle_angle_l	subtalar_angle_l	mtp_angle_l	L5_S1_Flex_Ext	L5_S1_Lat_Bending	L5_S1_axial_rotation	L4_L5_Flex_Ext	L4_L5_Lat_Bending	L4_L5_axial_rotation	L3_L4_Flex_Ext	L3_L4_Lat_Bending	L3_L4_axial_rotation	L2_L3_Flex_Ext	L2_L3_Lat_Bending	L2_L3_axial_rotation	L1_L2_Flex_Ext	L1_L2_Lat_Bending	L1_L2_axial_rotation	L1_T12_Flex_Ext	L1_T12_Lat_Bending	L1_T12_axial_rotation	Abs_r3	Abs_r2	Abs_r1	Abs_t1	Abs_t2	neck_flexion	neck_bending	neck_rotation	arm_flex_r	arm_add_r	arm_rot_r	elbow_flex_r	pro_sup_r	wrist_flex_r	wrist_dev_r	arm_flex_l	arm_add_l	arm_rot_l	elbow_flex_l	pro_sup_l	wrist_flex_l	wrist_dev_l
      0.00000000	      3.54196467	     -3.74791837	     75.70235885	      0.27879171	      0.93679016	      0.55519473	      2.41807747	      0.39197804	      1.86250489	     16.37822127	      0.28585389	     47.26096907	     17.53248723	      0.00000000	     -2.56549167	     -0.65186902	    -12.60298097	     11.83455800	      0.20655200	     40.65958266	     -6.17354884	      0.00000000	     -0.03238309	      0.13293342	      1.94576014	     -0.06013864	      0.17680145	      2.06737015	     -0.05320218	      0.32321431	      2.06737015	     -0.03701063	      0.32321431	      1.70254012	     -0.03007094	      0.27107783	      1.58093011	     -0.01850370	      0.20591387	      1.45932010	     -0.23130918	      1.50376942	     10.82173416	      0.00000000	      0.00000000	     24.35647119	     -3.40119864	     -4.86633119	    -76.16556906	    -75.70607198	    -30.21564712	     13.43530071	     17.49877777	     -0.30772080	      9.47001179	     -7.86980747	    -79.28218204	    122.38813857	      0.39115171	     54.25749637	    -17.72394692	     -7.35147849
      0.01666667	      4.00492313	     -3.69316264	     76.71354476	      0.27725003	      0.93652490	      0.55426913	      1.78014113	      0.77603170	      0.71495476	     15.76724395	      0.27519032	     47.26433655	     17.66305163	      0.00000000	     -2.63510162	     -1.01329009	    -10.37273380	     12.15323354	      0.21211394	     39.97177417	     -8.32906289	      0.00000000	     -0.02455542	      0.23113106	      1.77144172	     -0.04560187	      0.30740430	      1.88215682	     -0.04034210	      0.56197205	      1.88215682	     -0.02806439	      0.56197205	      1.55001150	     -0.02280216	      0.47132245	      1.43929639	     -0.01403097	      0.35802200	      1.32858129	     -0.17539691	      2.61460072	      9.85222739	      0.00000000	      0.00000000	     23.83215446	     -4.37466856	     -3.34075063	    -80.01582225	    -75.24220470	    -32.87484528	     13.50998743	     16.15277009	      1.52665800	      6.02442873	    -13.66357156	    -78.25780216	    114.45651097	      0.38987694	     40.60017020	    -13.44270367	     -7.96037950
      0.03333333	      4.07792338	     -3.67298132	     77.75120610	      0.27638933	      0.93637339	      0.55367295	      1.37670890	      0.84088092	     -0.37726983	     15.30132245	      0.26705846	     47.33547309	     17.70366282	      0.00000000	     -2.50583861	     -1.06684103	     -8.28307365	     12.44339000	      0.21717813	     39.58756756	     -9.88810322	      0.00000000	     -0.01572797	      0.25126263	      1.50799500	     -0.02920842	      0.33417930	      1.60224468	     -0.02583949	      0.61091995	      1.60224468	     -0.01797550	      0.61091995	      1.31949562	     -0.01460500	      0.51237475	      1.22524593	     -0.00898696	      0.38920581	      1.13099625	     -0.11234334	      2.84233310	      8.38701577	      0.00000000	      0.00000000	     23.40329637	     -4.52717809	     -2.74689888	    -79.80999329	    -75.40574440	    -33.09242794	     13.22619428	     17.21089420	      2.34422061	      3.58342076	    -19.40148897	    -77.64425320	    108.01836356	      0.38278660	     28.11139620	     -9.23681270	     -7.66257199
      0.05000000	      4.11853190	     -3.67832473	     78.62240403	      0.27554707	      0.93635844	      0.55351130	      1.12319321	      0.89288854	     -1.25048180	     14.95912312	      0.26108595	     47.35628609	     17.70737332	      0.00000000	     -2.28389203	     -1.14521588	     -6.96070191	     12.75350008	      0.22259057	     39.61752509	    -10.37860111	      0.00000000	     -0.01612495	      0.26169998	      1.32185014	     -0.02994565	      0.34806098	      1.40446577	     -0.02649169	      0.63629734	      1.40446577	     -0.01842921	      0.63629734	      1.15661887	     -0.01497363	      0.53365860	      1.07400324	     -0.00921380	      0.40537327	      0.99138760	     -0.11517894	      2.96040254	      7.35173390	      0.00000000	      0.00000000	     23.05248422	     -4.63066503	     -2.73113340	    -79.96488342	    -75.46815522	    -33.00864182	     13.17169167	     17.46329071	      2.87851142	      2.18472818	    -20.86143318	    -77.34686960	    105.63149960	      0.38629525	     23.07629591	     -6.51463497	     -6.80978803
      0.06666667	      4.04407841	     -3.74155086	     79.02091834	      0.27525288	      0.93637236	      0.55375488	      1.11129781	      0.85170369	     -1.60642923	     14.81699240	      0.25860530	     47.40179493	     17.68695961	      0.00000000	     -1.98498722	     -1.15837616	     -6.67615514	     13.04436379	      0.22766710	     39.96235251	     -9.96534803	      0.00000000	     -0.01933541	      0.25235950	      1.23069446	     -0.03590780	      0.33563813	      1.30761286	     -0.03176615	      0.61358689	      1.30761286	     -0.02209844	      0.61358689	      1.07685765	     -0.01795487	      0.51461149	      0.99993925	     -0.01104826	      0.39090486	      0.92302084	     -0.13811093	      2.85474113	      6.84475337	      0.00000000	      0.00000000	     22.80858989	     -4.59017775	     -3.11967212	    -79.70460773	    -75.13100380	    -36.91613661	     13.85029428	     21.92997342	      2.32202337	      2.02031573	    -20.72183881	    -77.32809693	    105.21338875	      0.39274394	     22.23286417	     -5.26042291	     -6.16085638
      0.08333333	      3.98011864	     -3.80469662	     78.99092642	      0.27498794	      0.93649540	      0.55417476	      1.19927629	      0.79028458	     -1.55596609	     14.78923718	      0.25812088	     47.38538438	     17.72817867	      0.00000000	     -1.79555957	     -1.08784540	     -6.48301127	     13.10462146	      0.22871879	     40.22195325	     -9.91014459	      0.00000000	     -0.03640291	      0.24770733	      1.20045913	     -0.06760385	      0.32945075	      1.27548783	     -0.05980634	      0.60227561	      1.27548783	     -0.04160489	      0.60227561	      1.05040174	     -0.03380374	      0.50512479	      0.97537305	     -0.02080062	      0.38369866	      0.90034435	     -0.26002236	      2.80211489	      6.67659356	      0.00000000	      0.00000000	     22.73445111	     -4.46537495	     -3.30464195	    -79.73397258	    -75.40217329	    -36.85382666	     14.02466198	     22.00182193	      2.33504347	      1.99873062	    -20.68818053	    -77.26364106	    105.32185568	      0.40043076	     22.29930748	     -5.22991142	     -6.19896976
      0.10000000	      3.65386289	     -3.96197446	     79.78824058	      0.27459856	      0.93636668	      0.55485229	      1.41565825	      0.51537335	     -2.43811717	     14.79992175	      0.25830736	     47.50616185	     17.74769806	      0.00000000	     -1.14011574	     -0.89710455	     -5.76267061	     13.62322594	      0.23777015	     40.46644559	     -9.63596788	      0.00000000	     -0.03679686	      0.18614434	      1.06552427	     -0.06833545	      0.24757197	      1.13211954	     -0.06045356	      0.45259134	      1.13211954	     -0.04205513	      0.45259134	      0.93233374	     -0.03416956	      0.37958553	      0.86573847	     -0.02102573	      0.28833758	      0.79914320	     -0.26283629	      2.10570196	      5.92612635	      0.00000000	      0.00000000	     22.60115208	     -3.78373183	     -4.53163268	    -78.26705012	    -75.23428074	    -35.70269210	     14.33883807	     23.14927892	      1.66489130	      2.16471723	    -19.29880009	    -77.84557311	    108.29369607	      0.40913040	     24.89960247	     -5.70269047	     -6.44644941
      0.11666667	      3.50813165	     -4.15667923	     79.79986716	      0.27435386	      0.93616167	      0.55577535	      1.78309770	      0.39728663	     -2.41650189	     14.98365527	      0.26151412	     47.52459003	     17.69367636	      0.00000000	     -0.63472035	     -0.80365318	     -5.79135921	     13.96833907	      0.24379351	     40.57721848	     -9.62199045	      0.00000000	     -0.04992702	      0.16196026	      1.05934741	     -0.09271946	      0.21540715	      1.12555662	     -0.08202509	      0.39379018	      1.12555662	     -0.05706159	      0.39379018	      0.92692898	     -0.04636223	      0.33026936	      0.86071977	     -0.02852830	      0.25087644	      0.79451056	     -0.35662368	      1.83212686	      5.89177248	      0.00000000	      0.00000000	     22.74920177	     -3.19222226	     -5.03427527	    -78.34489619	    -75.12375467	    -35.62210134	     14.75367051	     23.22691769	      1.73580076	      2.33797365	    -19.17129456	    -78.00352341	    108.39629977	      0.42001348	     25.03738127	     -5.36333566	     -7.12541202
      0.13333333	      3.24332380	     -4.31451743	     79.66691899	      0.27450750	      0.93599537	      0.55703424	      2.22492177	      0.15637321	     -2.35425341	     15.31392997	      0.26727850	     47.62835299	     17.68977303	      0.00000000	     -0.18748812	     -0.64833211	     -6.58742181	     14.25441004	      0.24878639	     40.62667112	     -9.03761026	      0.00000000	     -0.07162473	      0.11705281	      1.10655448	     -0.13301429	      0.15568024	      1.17571414	     -0.11767227	      0.28460221	      1.17571414	     -0.08185991	      0.28460221	      0.96823517	     -0.06651073	      0.23869410	      0.89907552	     -0.04092637	      0.18131481	      0.82991586	     -0.51160829	      1.32412484	      6.15432407	      0.00000000	      0.00000000	     22.97817172	     -2.49673171	     -5.69236389	    -77.35040255	    -74.25996764	    -38.69963252	     15.57668747	     26.89062009	      0.99021029	      2.89535915	    -18.98698949	    -78.35007417	    107.29901957	      0.43954884	     24.68992185	     -4.26577817	     -8.64176024
      0.15000000	      2.92555531	     -4.52312345	     79.60166460	      0.27457006	      0.93576773	      0.55822337	      2.72106486	     -0.13747151	     -2.38430369	     15.64082408	      0.27298388	     47.79638985	     17.71546634	      0.00000000	      0.35541806	     -0.48196525	     -7.51475945	     14.64544504	      0.25561124	     40.73854017	     -8.20695730	      0.00000000	     -0.08029580	      0.07009361	      1.13293408	     -0.14911734	      0.09322450	      1.20374246	     -0.13191797	      0.17042560	      1.20374246	     -0.09177007	      0.17042560	      0.99131732	     -0.07456268	      0.14293489	      0.92050894	     -0.04588102	      0.10857500	      0.84970056	     -0.57354489	      0.79291293	      6.30103945	      0.00000000	      0.00000000	     23.21610240	     -1.84744314	     -6.08187538	    -76.02751483	    -73.44198195	    -41.54862378	     16.14719176	     30.50055553	      0.63016508	      3.69235272	    -18.71966249	    -78.62118516	    107.39653157	      0.44323654	     27.12426907	     -5.36191200	     -9.91339151
      0.16666667	      2.71375021	     -4.70035288	     79.32501257	      0.27468055	      0.93560667	      0.55943672	      3.21705258	     -0.33151966	     -2.21266847	     16.03226383	      0.27981579	     48.02635961	     17.75744952	      0.00000000	      0.79515735	     -0.28488999	     -7.71503016	     14.93193523	      0.26061143	     40.64897938	     -8.61709641	      0.00000000	     -0.09160087	      0.04319908	      1.15725240	     -0.17011198	      0.05745477	      1.22958068	     -0.15049107	      0.10503424	      1.22958068	     -0.10469063	      0.10503424	      1.01259585	     -0.08506057	      0.08809156	      0.94026758	     -0.05234074	      0.06691537	      0.86793930	     -0.65429586	      0.48867660	      6.43629068	      0.00000000	      0.00000000	     23.40943256	     -1.27562185	     -6.08911095	    -74.61867235	    -73.19065602	    -43.23076466	     16.19017697	     33.50440029	      0.74978612	      4.34667906	    -19.60463253	    -78.59284002	    106.35730026	      0.43783195	     28.53511440	     -7.30309491	    -10.59737126
